# xmcd
#
# Track frame offsets:
#	150
#	18965
#	36737
#	51552
#	71655
#	88264
#	103741
#	124020
#	138232
#	158098
#	174825
#	186942
#	202517
#
# Disc length: 2900 seconds
#
# Revision: 0
# Processed by: cddbd v1.5.2PL0 Copyright (c) Steve Scherf et al.
# Submitted via: EasyCDDAExtractor 16.0.6.1
#
DISCID=b20b520d
DTITLE=Shake Russell - Little Bright Band of Light
DYEAR=2016
DGENRE=country
TTITLE0=At The Speed of Love
TTITLE1=Pure
TTITLE2=Little Bright Band of Light
TTITLE3=At Lane's End
TTITLE4=Shadow Man
TTITLE5=Letters, Songs, and Photographs
TTITLE6=The Sailing Angels
TTITLE7=Shotgun
TTITLE8=All The Way Home
TTITLE9=The King of the Honky Tonk Is Gone
TTITLE10=OK, Alright, Good Deal
TTITLE11=I Love The Wind
TTITLE12=River of Innocence
EXTD=
EXTT0=
EXTT1=
EXTT2=
EXTT3=
EXTT4=
EXTT5=
EXTT6=
EXTT7=
EXTT8=
EXTT9=
EXTT10=
EXTT11=
EXTT12=
PLAYORDER=
